# powerd by VOXELCANVAS
# https://voxelcanvas.me

# Author ryotaro,seiro
# https://utautattaro.com/
# https://seir.online/



mtllib m3SrnrvNxEG.mtl

# uvs
vt 0.25 0.75
vt 0.75 0.75

# normals
vn 1 0 0
vn -1 0 0
vn 0 1 0
vn 0 -1 0
vn 0 0 1
vn 0 0 -1

# positions
v -0.1 0.5 0.2
v -0.1 0.5 0.1
v -0.1 0.4 0.2
v -0.1 0.4 0.1
v -0.1 0.5 0.1
v 0 0.5 0.1
v -0.1 0.5 0.2
v 0 0.5 0.2
v 0 0.4 0.2
v -0.1 0.4 0.2
v 0 0.4 0.1
v -0.1 0.4 0.1
v -0.1 0.4 0.2
v -0.1 0.5 0.2
v 0 0.4 0.2
v 0 0.5 0.2
v 0 0.5 0.1
v 0 0.4 0.1
v -0.1 0.5 0.1
v -0.1 0.4 0.1
v -0.1 0.7000000000000001 0.1
v -0.1 0.7000000000000001 0.2
v -0.1 0.8 0.1
v -0.1 0.8 0.2
v -0.2 0.8 0.2
v -0.2 0.8 0.1
v -0.2 0.7000000000000001 0.2
v -0.2 0.7000000000000001 0.1
v -0.2 0.8 0.1
v -0.1 0.8 0.1
v -0.2 0.8 0.2
v -0.1 0.8 0.2
v -0.1 0.7000000000000001 0.2
v -0.2 0.7000000000000001 0.2
v -0.1 0.7000000000000001 0.1
v -0.2 0.7000000000000001 0.1
v -0.1 0.8 0.1
v -0.1 0.7000000000000001 0.1
v -0.2 0.8 0.1
v -0.2 0.7000000000000001 0.1
v -0.1 0 0.2
v -0.1 0 0.30000000000000004
v -0.1 0.1 0.2
v -0.1 0.1 0.30000000000000004
v -0.2 0.1 0.30000000000000004
v -0.2 0.1 0.2
v -0.2 0 0.30000000000000004
v -0.2 0 0.2
v -0.1 0 0.30000000000000004
v -0.2 0 0.30000000000000004
v -0.1 0 0.2
v -0.2 0 0.2
v -0.2 0 0.30000000000000004
v -0.2 0.1 0.30000000000000004
v -0.1 0 0.30000000000000004
v -0.1 0.1 0.30000000000000004
v -0.1 0.1 0.2
v -0.1 0 0.2
v -0.2 0.1 0.2
v -0.2 0 0.2
v -0.1 0.1 0.2
v -0.1 0.1 0.30000000000000004
v -0.1 0.2 0.2
v -0.1 0.2 0.30000000000000004
v -0.2 0.2 0.30000000000000004
v -0.2 0.2 0.2
v -0.2 0.1 0.30000000000000004
v -0.2 0.1 0.2
v -0.2 0.1 0.30000000000000004
v -0.2 0.2 0.30000000000000004
v -0.1 0.1 0.30000000000000004
v -0.1 0.2 0.30000000000000004
v -0.1 0.2 0.2
v -0.1 0.1 0.2
v -0.2 0.2 0.2
v -0.2 0.1 0.2
v -0.1 0.2 0.2
v -0.1 0.2 0.30000000000000004
v -0.1 0.30000000000000004 0.2
v -0.1 0.30000000000000004 0.30000000000000004
v -0.2 0.30000000000000004 0.30000000000000004
v -0.2 0.30000000000000004 0.2
v -0.2 0.2 0.30000000000000004
v -0.2 0.2 0.2
v -0.2 0.2 0.30000000000000004
v -0.2 0.30000000000000004 0.30000000000000004
v -0.1 0.2 0.30000000000000004
v -0.1 0.30000000000000004 0.30000000000000004
v -0.1 0.30000000000000004 0.2
v -0.1 0.2 0.2
v -0.2 0.30000000000000004 0.2
v -0.2 0.2 0.2
v -0.1 0.30000000000000004 0.2
v -0.1 0.30000000000000004 0.30000000000000004
v -0.1 0.4 0.2
v -0.1 0.4 0.30000000000000004
v -0.2 0.4 0.30000000000000004
v -0.2 0.4 0.2
v -0.2 0.30000000000000004 0.30000000000000004
v -0.2 0.30000000000000004 0.2
v -0.2 0.30000000000000004 0.30000000000000004
v -0.2 0.4 0.30000000000000004
v -0.1 0.30000000000000004 0.30000000000000004
v -0.1 0.4 0.30000000000000004
v -0.1 0.4 0.2
v -0.1 0.30000000000000004 0.2
v -0.2 0.4 0.2
v -0.2 0.30000000000000004 0.2
v -0.1 0.4 0.2
v -0.1 0.4 0.30000000000000004
v -0.1 0.5 0.2
v -0.1 0.5 0.30000000000000004
v -0.2 0.5 0.30000000000000004
v -0.2 0.5 0.2
v -0.2 0.4 0.30000000000000004
v -0.2 0.4 0.2
v -0.2 0.4 0.30000000000000004
v -0.2 0.5 0.30000000000000004
v -0.1 0.4 0.30000000000000004
v -0.1 0.5 0.30000000000000004
v -0.1 0.5 0.2
v -0.1 0.4 0.2
v -0.2 0.5 0.2
v -0.2 0.4 0.2
v -0.1 0.5 0.2
v -0.1 0.5 0.30000000000000004
v -0.1 0.6000000000000001 0.2
v -0.1 0.6000000000000001 0.30000000000000004
v -0.2 0.6000000000000001 0.30000000000000004
v -0.2 0.6000000000000001 0.2
v -0.2 0.5 0.30000000000000004
v -0.2 0.5 0.2
v -0.2 0.5 0.30000000000000004
v -0.2 0.6000000000000001 0.30000000000000004
v -0.1 0.5 0.30000000000000004
v -0.1 0.6000000000000001 0.30000000000000004
v -0.1 0.6000000000000001 0.2
v -0.1 0.5 0.2
v -0.2 0.6000000000000001 0.2
v -0.2 0.5 0.2
v -0.1 0.6000000000000001 0.2
v -0.1 0.6000000000000001 0.30000000000000004
v -0.1 0.7000000000000001 0.2
v -0.1 0.7000000000000001 0.30000000000000004
v -0.2 0.7000000000000001 0.30000000000000004
v -0.2 0.7000000000000001 0.2
v -0.2 0.6000000000000001 0.30000000000000004
v -0.2 0.6000000000000001 0.2
v -0.2 0.6000000000000001 0.30000000000000004
v -0.2 0.7000000000000001 0.30000000000000004
v -0.1 0.6000000000000001 0.30000000000000004
v -0.1 0.7000000000000001 0.30000000000000004
v -0.1 0.7000000000000001 0.2
v -0.1 0.6000000000000001 0.2
v -0.2 0.7000000000000001 0.2
v -0.2 0.6000000000000001 0.2
v -0.30000000000000004 0.8 0.30000000000000004
v -0.30000000000000004 0.8 0.2
v -0.30000000000000004 0.7000000000000001 0.30000000000000004
v -0.30000000000000004 0.7000000000000001 0.2
v -0.30000000000000004 0.8 0.2
v -0.2 0.8 0.2
v -0.30000000000000004 0.8 0.30000000000000004
v -0.2 0.8 0.30000000000000004
v -0.2 0.7000000000000001 0.30000000000000004
v -0.30000000000000004 0.7000000000000001 0.30000000000000004
v -0.2 0.7000000000000001 0.2
v -0.30000000000000004 0.7000000000000001 0.2
v -0.30000000000000004 0.7000000000000001 0.30000000000000004
v -0.30000000000000004 0.8 0.30000000000000004
v -0.2 0.7000000000000001 0.30000000000000004
v -0.2 0.8 0.30000000000000004
v -0.2 0.8 0.2
v -0.2 0.7000000000000001 0.2
v -0.30000000000000004 0.8 0.2
v -0.30000000000000004 0.7000000000000001 0.2
v -0.2 0.8 0.2
v -0.1 0.8 0.2
v -0.2 0.8 0.30000000000000004
v -0.1 0.8 0.30000000000000004
v 0 0.7000000000000001 0.2
v 0 0.7000000000000001 0.30000000000000004
v 0 0.8 0.2
v 0 0.8 0.30000000000000004
v -0.1 0.8 0.2
v 0 0.8 0.2
v -0.1 0.8 0.30000000000000004
v 0 0.8 0.30000000000000004
v 0 0.7000000000000001 0.30000000000000004
v -0.1 0.7000000000000001 0.30000000000000004
v 0 0.7000000000000001 0.2
v -0.1 0.7000000000000001 0.2
v -0.1 0.7000000000000001 0.30000000000000004
v -0.1 0.8 0.30000000000000004
v 0 0.7000000000000001 0.30000000000000004
v 0 0.8 0.30000000000000004
v 0 0.8 0.2
v 0 0.7000000000000001 0.2
v -0.1 0.8 0.2
v -0.1 0.7000000000000001 0.2
v -0.4 0.2 0.4
v -0.4 0.2 0.30000000000000004
v -0.4 0.1 0.4
v -0.4 0.1 0.30000000000000004
v -0.4 0.2 0.30000000000000004
v -0.30000000000000004 0.2 0.30000000000000004
v -0.4 0.2 0.4
v -0.30000000000000004 0.2 0.4
v -0.30000000000000004 0.1 0.4
v -0.4 0.1 0.4
v -0.30000000000000004 0.1 0.30000000000000004
v -0.4 0.1 0.30000000000000004
v -0.4 0.1 0.4
v -0.4 0.2 0.4
v -0.30000000000000004 0.1 0.4
v -0.30000000000000004 0.2 0.4
v -0.30000000000000004 0.2 0.30000000000000004
v -0.30000000000000004 0.1 0.30000000000000004
v -0.4 0.2 0.30000000000000004
v -0.4 0.1 0.30000000000000004
v -0.2 0.1 0.30000000000000004
v -0.2 0.1 0.4
v -0.2 0.2 0.30000000000000004
v -0.2 0.2 0.4
v -0.30000000000000004 0.2 0.30000000000000004
v -0.2 0.2 0.30000000000000004
v -0.30000000000000004 0.2 0.4
v -0.2 0.2 0.4
v -0.2 0.1 0.4
v -0.30000000000000004 0.1 0.4
v -0.2 0.1 0.30000000000000004
v -0.30000000000000004 0.1 0.30000000000000004
v -0.30000000000000004 0.1 0.4
v -0.30000000000000004 0.2 0.4
v -0.2 0.1 0.4
v -0.2 0.2 0.4
v -0.2 0.2 0.30000000000000004
v -0.2 0.1 0.30000000000000004
v -0.30000000000000004 0.2 0.30000000000000004
v -0.30000000000000004 0.1 0.30000000000000004
v -0.1 0.7000000000000001 0.30000000000000004
v -0.1 0.7000000000000001 0.4
v -0.1 0.8 0.30000000000000004
v -0.1 0.8 0.4
v -0.2 0.8 0.4
v -0.2 0.8 0.30000000000000004
v -0.2 0.7000000000000001 0.4
v -0.2 0.7000000000000001 0.30000000000000004
v -0.2 0.8 0.30000000000000004
v -0.1 0.8 0.30000000000000004
v -0.2 0.8 0.4
v -0.1 0.8 0.4
v -0.1 0.7000000000000001 0.4
v -0.2 0.7000000000000001 0.4
v -0.1 0.7000000000000001 0.30000000000000004
v -0.2 0.7000000000000001 0.30000000000000004
v -0.2 0.7000000000000001 0.4
v -0.2 0.8 0.4
v -0.1 0.7000000000000001 0.4
v -0.1 0.8 0.4
v 0.1 0.4 0.1
v 0.1 0.4 0.2
v 0.1 0.5 0.1
v 0.1 0.5 0.2
v 0 0.5 0.1
v 0.1 0.5 0.1
v 0 0.5 0.2
v 0.1 0.5 0.2
v 0.1 0.4 0.2
v 0 0.4 0.2
v 0.1 0.4 0.1
v 0 0.4 0.1
v 0 0.4 0.2
v 0 0.5 0.2
v 0.1 0.4 0.2
v 0.1 0.5 0.2
v 0.1 0.5 0.1
v 0.1 0.4 0.1
v 0 0.5 0.1
v 0 0.4 0.1


g mesh
usemtl mat0
f 1/1/2 2/1/2 3/1/2
f 2/1/2 4/1/2 3/1/2
f 5/1/3 7/1/3 6/1/3
f 6/1/3 7/1/3 8/1/3
f 9/1/4 10/1/4 11/1/4
f 10/1/4 12/1/4 11/1/4
f 13/1/5 15/1/5 14/1/5
f 14/1/5 15/1/5 16/1/5
f 17/1/6 18/1/6 19/1/6
f 18/1/6 20/1/6 19/1/6
f 21/2/1 23/2/1 22/2/1
f 22/2/1 23/2/1 24/2/1
f 25/2/2 26/2/2 27/2/2
f 26/2/2 28/2/2 27/2/2
f 29/2/3 31/2/3 30/2/3
f 30/2/3 31/2/3 32/2/3
f 33/2/4 34/2/4 35/2/4
f 34/2/4 36/2/4 35/2/4
f 37/2/6 38/2/6 39/2/6
f 38/2/6 40/2/6 39/2/6
f 41/1/1 43/1/1 42/1/1
f 42/1/1 43/1/1 44/1/1
f 45/1/2 46/1/2 47/1/2
f 46/1/2 48/1/2 47/1/2
f 49/1/4 50/1/4 51/1/4
f 50/1/4 52/1/4 51/1/4
f 53/1/5 55/1/5 54/1/5
f 54/1/5 55/1/5 56/1/5
f 57/1/6 58/1/6 59/1/6
f 58/1/6 60/1/6 59/1/6
f 61/1/1 63/1/1 62/1/1
f 62/1/1 63/1/1 64/1/1
f 65/1/2 66/1/2 67/1/2
f 66/1/2 68/1/2 67/1/2
f 69/1/5 71/1/5 70/1/5
f 70/1/5 71/1/5 72/1/5
f 73/1/6 74/1/6 75/1/6
f 74/1/6 76/1/6 75/1/6
f 77/1/1 79/1/1 78/1/1
f 78/1/1 79/1/1 80/1/1
f 81/1/2 82/1/2 83/1/2
f 82/1/2 84/1/2 83/1/2
f 85/1/5 87/1/5 86/1/5
f 86/1/5 87/1/5 88/1/5
f 89/1/6 90/1/6 91/1/6
f 90/1/6 92/1/6 91/1/6
f 93/1/1 95/1/1 94/1/1
f 94/1/1 95/1/1 96/1/1
f 97/1/2 98/1/2 99/1/2
f 98/1/2 100/1/2 99/1/2
f 101/1/5 103/1/5 102/1/5
f 102/1/5 103/1/5 104/1/5
f 105/1/6 106/1/6 107/1/6
f 106/1/6 108/1/6 107/1/6
f 109/1/1 111/1/1 110/1/1
f 110/1/1 111/1/1 112/1/1
f 113/1/2 114/1/2 115/1/2
f 114/1/2 116/1/2 115/1/2
f 117/1/5 119/1/5 118/1/5
f 118/1/5 119/1/5 120/1/5
f 121/1/6 122/1/6 123/1/6
f 122/1/6 124/1/6 123/1/6
f 125/1/1 127/1/1 126/1/1
f 126/1/1 127/1/1 128/1/1
f 129/1/2 130/1/2 131/1/2
f 130/1/2 132/1/2 131/1/2
f 133/1/5 135/1/5 134/1/5
f 134/1/5 135/1/5 136/1/5
f 137/1/6 138/1/6 139/1/6
f 138/1/6 140/1/6 139/1/6
f 141/1/1 143/1/1 142/1/1
f 142/1/1 143/1/1 144/1/1
f 145/1/2 146/1/2 147/1/2
f 146/1/2 148/1/2 147/1/2
f 149/1/5 151/1/5 150/1/5
f 150/1/5 151/1/5 152/1/5
f 153/1/6 154/1/6 155/1/6
f 154/1/6 156/1/6 155/1/6
f 157/2/2 158/2/2 159/2/2
f 158/2/2 160/2/2 159/2/2
f 161/2/3 163/2/3 162/2/3
f 162/2/3 163/2/3 164/2/3
f 165/2/4 166/2/4 167/2/4
f 166/2/4 168/2/4 167/2/4
f 169/2/5 171/2/5 170/2/5
f 170/2/5 171/2/5 172/2/5
f 173/2/6 174/2/6 175/2/6
f 174/2/6 176/2/6 175/2/6
f 177/2/3 179/2/3 178/2/3
f 178/2/3 179/2/3 180/2/3
f 181/2/1 183/2/1 182/2/1
f 182/2/1 183/2/1 184/2/1
f 185/2/3 187/2/3 186/2/3
f 186/2/3 187/2/3 188/2/3
f 189/2/4 190/2/4 191/2/4
f 190/2/4 192/2/4 191/2/4
f 193/2/5 195/2/5 194/2/5
f 194/2/5 195/2/5 196/2/5
f 197/2/6 198/2/6 199/2/6
f 198/2/6 200/2/6 199/2/6
f 201/1/2 202/1/2 203/1/2
f 202/1/2 204/1/2 203/1/2
f 205/1/3 207/1/3 206/1/3
f 206/1/3 207/1/3 208/1/3
f 209/1/4 210/1/4 211/1/4
f 210/1/4 212/1/4 211/1/4
f 213/1/5 215/1/5 214/1/5
f 214/1/5 215/1/5 216/1/5
f 217/1/6 218/1/6 219/1/6
f 218/1/6 220/1/6 219/1/6
f 221/1/1 223/1/1 222/1/1
f 222/1/1 223/1/1 224/1/1
f 225/1/3 227/1/3 226/1/3
f 226/1/3 227/1/3 228/1/3
f 229/1/4 230/1/4 231/1/4
f 230/1/4 232/1/4 231/1/4
f 233/1/5 235/1/5 234/1/5
f 234/1/5 235/1/5 236/1/5
f 237/1/6 238/1/6 239/1/6
f 238/1/6 240/1/6 239/1/6
f 241/2/1 243/2/1 242/2/1
f 242/2/1 243/2/1 244/2/1
f 245/2/2 246/2/2 247/2/2
f 246/2/2 248/2/2 247/2/2
f 249/2/3 251/2/3 250/2/3
f 250/2/3 251/2/3 252/2/3
f 253/2/4 254/2/4 255/2/4
f 254/2/4 256/2/4 255/2/4
f 257/2/5 259/2/5 258/2/5
f 258/2/5 259/2/5 260/2/5
f 261/1/1 263/1/1 262/1/1
f 262/1/1 263/1/1 264/1/1
f 265/1/3 267/1/3 266/1/3
f 266/1/3 267/1/3 268/1/3
f 269/1/4 270/1/4 271/1/4
f 270/1/4 272/1/4 271/1/4
f 273/1/5 275/1/5 274/1/5
f 274/1/5 275/1/5 276/1/5
f 277/1/6 278/1/6 279/1/6
f 278/1/6 280/1/6 279/1/6


g transparent 
usemtl mat1
